<svg id="Capa_1" enable-background="new 0 0 512 512" height="512" viewBox="0 0 512 512" width="512" xmlns="http://www.w3.org/2000/svg"><g><g><path d="m219.296 0-13.288 45.746c-22.448 5.303-43.678 14.099-63.324 26.235l-41.749-22.954-51.907 51.908 22.954 41.749c-12.137 19.647-20.933 40.877-26.236 63.325l-45.746 13.286v73.409l45.745 13.287c5.304 22.448 14.1 43.678 26.236 63.325l-22.954 41.749 51.907 51.908 41.749-22.954c19.646 12.136 40.876 20.932 63.324 26.235l13.289 45.746h36.704l21.199-240.231-21.199-271.769z" fill="#143d66"/><path d="m466.255 206.008c-5.304-22.448-14.1-43.678-26.236-63.325l22.954-41.749-51.907-51.908-41.749 22.954c-19.646-12.136-40.876-20.932-63.324-26.235l-13.289-45.745h-36.704v512h36.704l13.288-45.746c22.448-5.303 43.678-14.099 63.324-26.235l41.749 22.954 51.907-51.908-22.954-41.749c12.137-19.647 20.933-40.877 26.236-63.325l45.746-13.286v-73.409z" fill="#102840"/></g><g><path d="m123.784 256c0 72.904 59.312 132.216 132.216 132.216l19.969-132.216-19.969-132.216c-72.904 0-132.216 59.312-132.216 132.216z" fill="#daf2fe"/><path d="m256 123.784v264.432c72.904 0 132.216-59.312 132.216-132.216s-59.312-132.216-132.216-132.216z" fill="#c1e3fd"/></g><g><path d="m241 352.318v26.846c-56.447-6.833-101.331-51.717-108.164-108.164h26.846v-30h-26.846c6.833-56.447 51.717-101.331 108.164-108.164v26.846h15l9.656-35.898-9.656-21.857c-84.956 0-154.073 69.117-154.073 154.073s69.117 154.073 154.073 154.073l10.039-15.452-10.039-42.303z" fill="#5ed8d3"/><path d="m241 192.816v67.992l-30.686 25.383 19.122 23.117 26.564-21.975 7.5-36.941-7.5-57.576z" fill="#7d89e5"/></g><path d="m256 101.927v57.755h15v-26.846c56.447 6.833 101.331 51.717 108.164 108.164h-26.846v30h26.846c-6.833 56.447-51.717 101.331-108.164 108.164v-26.846h-15v57.755c84.956 0 154.073-69.117 154.073-154.073s-69.117-154.073-154.073-154.073z" fill="#3ab8b9"/><path d="m271 192.816h-15v94.517l15-12.408z" fill="#706bef"/></g></svg>